Cantarell-Regular_20180608.ufo
<glyph name="exclam" format="2">
	<unicode hex="0021"/>
	<advance width="248"/>
	<outline>
		<contour>
			<point x="92" y="201" type="line"/>
			<point x="156" y="201" type="line"/>
			<point x="166" y="694" type="line"/>
			<point x="82" y="694" type="line"/>
		</contour>
		<contour>
			<point x="125" y="-10" type="curve" smooth="yes"/>
			<point x="163" y="-10"/>
			<point x="189" y="17"/>
			<point x="189" y="54" type="curve" smooth="yes"/>
			<point x="189" y="91"/>
			<point x="163" y="118"/>
			<point x="125" y="118" type="curve" smooth="yes"/>
			<point x="87" y="118"/>
			<point x="61" y="91"/>
			<point x="61" y="54" type="curve" smooth="yes"/>
			<point x="61" y="17"/>
			<point x="87" y="-10"/>
		</contour>
	</outline>
</glyph>
<glyph name="quotesingle" format="2">
	<unicode hex="0027"/>
	<advance width="246"/>
	<outline>
		<contour>
			<point x="90" y="422" type="line"/>
			<point x="156" y="422" type="line"/>
			<point x="166" y="694" type="line"/>
			<point x="80" y="694" type="line"/>
		</contour>
	</outline>
</glyph>
<glyph name="period" format="2">
	<unicode hex="002E"/>
	<advance width="274"/>
	<outline>
		<contour>
			<point x="137" y="-10" type="curve" smooth="yes"/>
			<point x="175" y="-10"/>
			<point x="201" y="17"/>
			<point x="201" y="54" type="curve" smooth="yes"/>
			<point x="201" y="91"/>
			<point x="175" y="118"/>
			<point x="137" y="118" type="curve" smooth="yes"/>
			<point x="99" y="118"/>
			<point x="73" y="91"/>
			<point x="73" y="54" type="curve" smooth="yes"/>
			<point x="73" y="17"/>
			<point x="99" y="-10"/>
		</contour>
	</outline>
</glyph>
<glyph name="B" format="2">
	<unicode hex="0042"/>
	<advance width="662"/>
	<outline>
		<contour>
			<point x="106" y="0" type="line"/>
			<point x="348" y="0" type="line" smooth="yes"/>
			<point x="508" y="0"/>
			<point x="602" y="75"/>
			<point x="602" y="202" type="curve" smooth="yes"/>
			<point x="602" y="319"/>
			<point x="514" y="396"/>
			<point x="381" y="396" type="curve" smooth="yes"/>
			<point x="155" y="396" type="line"/>
			<point x="155" y="327" type="line"/>
			<point x="372" y="327" type="line" smooth="yes"/>
			<point x="460" y="327"/>
			<point x="517" y="271"/>
			<point x="517" y="185" type="curve" smooth="yes"/>
			<point x="517" y="105"/>
			<point x="469" y="71"/>
			<point x="358" y="71" type="curve" smooth="yes"/>
			<point x="189" y="71" type="line"/>
			<point x="189" y="623" type="line"/>
			<point x="307" y="623" type="line" smooth="yes"/>
			<point x="413" y="623"/>
			<point x="465" y="584"/>
			<point x="465" y="505" type="curve" smooth="yes"/>
			<point x="465" y="444"/>
			<point x="431" y="409"/>
			<point x="339" y="375" type="curve"/>
			<point x="459" y="375" type="line"/>
			<point x="514" y="399"/>
			<point x="550" y="460"/>
			<point x="550" y="527" type="curve" smooth="yes"/>
			<point x="550" y="633"/>
			<point x="465" y="694"/>
			<point x="317" y="694" type="curve" smooth="yes"/>
			<point x="106" y="694" type="line"/>
		</contour>
	</outline>
	<anchor name="bottom" x="328" y="0"/>
	<anchor name="top" x="328" y="694"/>
	<note>
		B
	</note>
</glyph>
<glyph name="C" format="2">
	<unicode hex="0043"/>
	<advance width="669"/>
	<outline>
		<contour>
			<point x="409" y="-10" type="curve" smooth="yes"/>
			<point x="476" y="-10"/>
			<point x="546" y="5"/>
			<point x="612" y="34" type="curve"/>
			<point x="593" y="95" type="line"/>
			<point x="543" y="75"/>
			<point x="481" y="63"/>
			<point x="428" y="63" type="curve" smooth="yes"/>
			<point x="262" y="63"/>
			<point x="152" y="181"/>
			<point x="152" y="358" type="curve" smooth="yes"/>
			<point x="152" y="527"/>
			<point x="253" y="630"/>
			<point x="420" y="630" type="curve" smooth="yes"/>
			<point x="476" y="630"/>
			<point x="539" y="618"/>
			<point x="592" y="598" type="curve"/>
			<point x="616" y="660" type="line"/>
			<point x="565" y="687"/>
			<point x="493" y="703"/>
			<point x="425" y="703" type="curve" smooth="yes"/>
			<point x="210" y="703"/>
			<point x="67" y="557"/>
			<point x="67" y="339" type="curve" smooth="yes"/>
			<point x="67" y="130"/>
			<point x="204" y="-10"/>
		</contour>
	</outline>
	<anchor name="bottom" x="380" y="0"/>
	<anchor name="top" x="380" y="694"/>
	<note>
		C
	</note>
</glyph>
<glyph name="H" format="2">
	<unicode hex="0048"/>
	<advance width="749"/>
	<outline>
		<contour>
			<point x="560" y="0" type="line"/>
			<point x="643" y="0" type="line"/>
			<point x="643" y="694" type="line"/>
			<point x="560" y="694" type="line"/>
		</contour>
		<contour>
			<point x="106" y="0" type="line"/>
			<point x="189" y="0" type="line"/>
			<point x="189" y="694" type="line"/>
			<point x="106" y="694" type="line"/>
		</contour>
		<contour>
			<point x="138" y="323" type="line"/>
			<point x="608" y="323" type="line"/>
			<point x="608" y="395" type="line"/>
			<point x="138" y="395" type="line"/>
		</contour>
	</outline>
	<anchor name="bottom" x="375" y="0"/>
	<anchor name="center" x="375" y="539"/>
	<anchor name="top" x="375" y="694"/>
	<anchor name="topleft" x="17" y="694"/>
	<note>
		H
	</note>
</glyph>
<glyph name="K" format="2">
	<unicode hex="004B"/>
	<advance width="631"/>
	<outline>
		<contour>
			<point x="498" y="0" type="line"/>
			<point x="608" y="0" type="line"/>
			<point x="275" y="380" type="line"/>
			<point x="278" y="358" type="line"/>
			<point x="593" y="694" type="line"/>
			<point x="492" y="694" type="line"/>
			<point x="186" y="361" type="line"/>
		</contour>
		<contour>
			<point x="106" y="0" type="line"/>
			<point x="189" y="0" type="line"/>
			<point x="189" y="694" type="line"/>
			<point x="106" y="694" type="line"/>
		</contour>
	</outline>
	<anchor name="bottom" x="320" y="0"/>
	<anchor name="top" x="320" y="694"/>
	<note>
		K
	</note>
</glyph>
<glyph name="L" format="2">
	<unicode hex="004C"/>
	<advance width="545"/>
	<outline>
		<contour>
			<point x="106" y="0" type="line"/>
			<point x="500" y="0" type="line"/>
			<point x="500" y="74" type="line"/>
			<point x="189" y="74" type="line"/>
			<point x="189" y="694" type="line"/>
			<point x="106" y="694" type="line"/>
		</contour>
	</outline>
	<anchor name="bottom" x="304" y="0"/>
	<anchor name="center" x="174" y="347"/>
	<anchor name="periodcentered" x="545" y="352"/>
	<anchor name="top" x="149" y="694"/>
	<anchor name="topright" x="313" y="482"/>
	<note>
		L
	</note>
</glyph>
<glyph name="N" format="2">
	<unicode hex="004E"/>
	<advance width="778"/>
	<outline>
		<contour>
			<point x="106" y="0" type="line"/>
			<point x="184" y="0" type="line"/>
			<point x="184" y="605" type="line"/>
			<point x="169" y="605" type="line"/>
			<point x="580" y="0" type="line"/>
			<point x="672" y="0" type="line"/>
			<point x="672" y="694" type="line"/>
			<point x="594" y="694" type="line"/>
			<point x="594" y="87" type="line"/>
			<point x="610" y="87" type="line"/>
			<point x="201" y="694" type="line"/>
			<point x="106" y="694" type="line"/>
		</contour>
	</outline>
	<anchor name="bottom" x="389" y="0"/>
	<anchor name="top" x="389" y="694"/>
	<note>
		N
	</note>
</glyph>
<glyph name="Y" format="2">
	<unicode hex="0059"/>
	<advance width="610"/>
	<outline>
		<contour>
			<point x="266" y="0" type="line"/>
			<point x="349" y="0" type="line"/>
			<point x="349" y="299" type="line"/>
			<point x="589" y="694" type="line"/>
			<point x="498" y="694" type="line"/>
			<point x="305" y="362" type="line"/>
			<point x="316" y="362" type="line"/>
			<point x="118" y="694" type="line"/>
			<point x="21" y="694" type="line"/>
			<point x="266" y="299" type="line"/>
		</contour>
	</outline>
	<anchor name="bottom" x="311" y="0"/>
	<anchor name="top" x="311" y="694"/>
	<anchor name="topleft" x="33" y="694"/>
	<note>
		Y
	</note>
</glyph>
<glyph name="Z" format="2">
	<unicode hex="005A"/>
	<advance width="662"/>
	<outline>
		<contour>
			<point x="52" y="0" type="line"/>
			<point x="610" y="0" type="line"/>
			<point x="610" y="72" type="line"/>
			<point x="130" y="72" type="line"/>
			<point x="142" y="47" type="line"/>
			<point x="597" y="642" type="line"/>
			<point x="597" y="694" type="line"/>
			<point x="66" y="694" type="line"/>
			<point x="66" y="622" type="line"/>
			<point x="518" y="622" type="line"/>
			<point x="506" y="647" type="line"/>
			<point x="52" y="53" type="line"/>
		</contour>
	</outline>
	<anchor name="bottom" x="331" y="0"/>
	<anchor name="top" x="331" y="694"/>
	<note>
		Z
	</note>
</glyph>
<glyph name="underscore" format="2">
	<unicode hex="005F"/>
	<advance width="608"/>
	<outline>
		<contour>
			<point x="85" y="-69" type="line"/>
			<point x="523" y="-69" type="line"/>
			<point x="523" y="0" type="line"/>
			<point x="85" y="0" type="line"/>
		</contour>
	</outline>
</glyph>
<glyph name="k" format="2">
	<unicode hex="006B"/>
	<advance width="501"/>
	<outline>
		<contour>
			<point x="85" y="0" type="line"/>
			<point x="165" y="0" type="line"/>
			<point x="165" y="739" type="line"/>
			<point x="85" y="739" type="line"/>
		</contour>
		<contour>
			<point x="390" y="0" type="line"/>
			<point x="496" y="0" type="line"/>
			<point x="245" y="286" type="line"/>
			<point x="239" y="237" type="line"/>
			<point x="474" y="482" type="line"/>
			<point x="379" y="482" type="line"/>
			<point x="163" y="257" type="line"/>
		</contour>
	</outline>
	<anchor name="bottom" x="253" y="0"/>
	<anchor name="top" x="253" y="482"/>
	<note>
		k
	</note>
</glyph>
<glyph name="r" format="2">
	<unicode hex="0072"/>
	<advance width="388"/>
	<outline>
		<contour>
			<point x="85" y="0" type="line"/>
			<point x="165" y="0" type="line"/>
			<point x="165" y="370" type="line"/>
			<point x="151" y="482" type="line"/>
			<point x="85" y="482" type="line"/>
		</contour>
		<contour>
			<point x="147" y="313" type="line"/>
			<point x="175" y="374"/>
			<point x="233" y="411"/>
			<point x="299" y="411" type="curve" smooth="yes"/>
			<point x="318" y="411"/>
			<point x="336" y="408"/>
			<point x="352" y="402" type="curve"/>
			<point x="372" y="476" type="line"/>
			<point x="351" y="483"/>
			<point x="330" y="487"/>
			<point x="308" y="487" type="curve" smooth="yes"/>
			<point x="243" y="487"/>
			<point x="183" y="452"/>
			<point x="147" y="394" type="curve"/>
		</contour>
	</outline>
	<anchor name="bottom" x="124" y="0"/>
	<anchor name="top" x="229" y="482"/>
	<note>
		r
	</note>
</glyph>
<glyph name="t" format="2">
	<unicode hex="0074"/>
	<advance width="365"/>
	<outline>
		<contour>
			<point x="242" y="-5" type="curve" smooth="yes"/>
			<point x="275" y="-5"/>
			<point x="308" y="3"/>
			<point x="331" y="13" type="curve"/>
			<point x="313" y="71" type="line"/>
			<point x="298" y="64"/>
			<point x="276" y="60"/>
			<point x="259" y="60" type="curve" smooth="yes"/>
			<point x="209" y="60"/>
			<point x="176" y="92"/>
			<point x="176" y="140" type="curve" smooth="yes"/>
			<point x="176" y="623" type="line"/>
			<point x="96" y="623" type="line"/>
			<point x="96" y="129" type="line" smooth="yes"/>
			<point x="96" y="49"/>
			<point x="154" y="-5"/>
		</contour>
		<contour>
			<point x="31" y="415" type="line"/>
			<point x="308" y="415" type="line"/>
			<point x="308" y="482" type="line"/>
			<point x="31" y="482" type="line"/>
		</contour>
	</outline>
	<anchor name="bottom" x="205" y="5"/>
	<anchor name="center" x="169" y="246"/>
	<anchor name="top" x="133" y="623"/>
	<anchor name="topright" x="300" y="482"/>
	<note>
		t
	</note>
</glyph>
<glyph name="w" format="2">
	<unicode hex="0077"/>
	<advance width="814"/>
	<outline>
		<contour>
			<point x="203" y="0" type="line"/>
			<point x="279" y="0" type="line"/>
			<point x="420" y="440" type="line"/>
			<point x="387" y="440" type="line"/>
			<point x="534" y="0" type="line"/>
			<point x="615" y="0" type="line"/>
			<point x="785" y="482" type="line"/>
			<point x="705" y="482" type="line"/>
			<point x="562" y="35" type="line"/>
			<point x="595" y="35" type="line"/>
			<point x="455" y="480" type="line"/>
			<point x="365" y="480" type="line"/>
			<point x="228" y="35" type="line"/>
			<point x="260" y="35" type="line"/>
			<point x="118" y="482" type="line"/>
			<point x="27" y="482" type="line"/>
		</contour>
	</outline>
	<anchor name="bottom" x="414" y="0"/>
	<anchor name="top" x="414" y="482"/>
	<note>
		w
	</note>
</glyph>
<glyph name="x" format="2">
	<unicode hex="0078"/>
	<advance width="498"/>
	<outline>
		<contour>
			<point x="28" y="0" type="line"/>
			<point x="119" y="0" type="line"/>
			<point x="269" y="214" type="line"/>
			<point x="472" y="482" type="line"/>
			<point x="381" y="482" type="line"/>
			<point x="228" y="264" type="line"/>
		</contour>
		<contour>
			<point x="371" y="0" type="line"/>
			<point x="463" y="0" type="line"/>
			<point x="265" y="272" type="line"/>
			<point x="119" y="482" type="line"/>
			<point x="27" y="482" type="line"/>
			<point x="222" y="211" type="line"/>
		</contour>
	</outline>
	<anchor name="bottom" x="248" y="0"/>
	<anchor name="top" x="248" y="482"/>
	<note>
		x
	</note>
</glyph>
<glyph name="bar" format="2">
	<unicode hex="007C"/>
	<advance width="331"/>
	<outline>
		<contour>
			<point x="127" y="-159" type="line"/>
			<point x="204" y="-159" type="line"/>
			<point x="204" y="741" type="line"/>
			<point x="127" y="741" type="line"/>
		</contour>
	</outline>
</glyph>
<glyph name="asciitilde" format="2">
	<unicode hex="007E"/>
	<advance width="678"/>
	<outline>
		<contour>
			<point x="148" y="252" type="line"/>
			<point x="160" y="296"/>
			<point x="199" y="330"/>
			<point x="239" y="330" type="curve" smooth="yes"/>
			<point x="301" y="330"/>
			<point x="336" y="247"/>
			<point x="426" y="247" type="curve" smooth="yes"/>
			<point x="496" y="247"/>
			<point x="562" y="297"/>
			<point x="583" y="378" type="curve"/>
			<point x="528" y="401" type="line"/>
			<point x="512" y="350"/>
			<point x="471" y="322"/>
			<point x="435" y="322" type="curve" smooth="yes"/>
			<point x="371" y="322"/>
			<point x="339" y="405"/>
			<point x="251" y="405" type="curve" smooth="yes"/>
			<point x="178" y="405"/>
			<point x="116" y="352"/>
			<point x="95" y="275" type="curve"/>
		</contour>
	</outline>
</glyph>
<glyph name="brokenbar" format="2">
	<unicode hex="00A6"/>
	<advance width="333"/>
	<outline>
		<contour>
			<point x="127" y="-159" type="line"/>
			<point x="206" y="-159" type="line"/>
			<point x="206" y="181" type="line"/>
			<point x="127" y="181" type="line"/>
		</contour>
		<contour>
			<point x="127" y="412" type="line"/>
			<point x="206" y="412" type="line"/>
			<point x="206" y="741" type="line"/>
			<point x="127" y="741" type="line"/>
		</contour>
	</outline>
</glyph>
<glyph name="logicalnot" format="2">
	<unicode hex="00AC"/>
	<advance width="687"/>
	<outline>
		<contour>
			<point x="84" y="328" type="line"/>
			<point x="560" y="328" type="line"/>
			<point x="560" y="395" type="line"/>
			<point x="84" y="395" type="line"/>
		</contour>
		<contour>
			<point x="480" y="152" type="line"/>
			<point x="560" y="152" type="line"/>
			<point x="560" y="353" type="line"/>
			<point x="480" y="353" type="line"/>
		</contour>
	</outline>
</glyph>
<glyph name="ordmasculine" format="2">
	<unicode hex="00BA"/>
	<advance width="421"/>
	<outline>
		<contour>
			<point x="207" y="373" type="curve" smooth="yes"/>
			<point x="314" y="373"/>
			<point x="387" y="450"/>
			<point x="387" y="565" type="curve" smooth="yes"/>
			<point x="387" y="677"/>
			<point x="319" y="749"/>
			<point x="215" y="749" type="curve" smooth="yes"/>
			<point x="106" y="749"/>
			<point x="34" y="672"/>
			<point x="34" y="557" type="curve" smooth="yes"/>
			<point x="34" y="446"/>
			<point x="102" y="373"/>
		</contour>
		<contour>
			<point x="213" y="430" type="curve" smooth="yes"/>
			<point x="146" y="430"/>
			<point x="103" y="483"/>
			<point x="103" y="563" type="curve" smooth="yes"/>
			<point x="103" y="640"/>
			<point x="143" y="692"/>
			<point x="208" y="692" type="curve" smooth="yes"/>
			<point x="275" y="692"/>
			<point x="319" y="638"/>
			<point x="319" y="558" type="curve" smooth="yes"/>
			<point x="319" y="480"/>
			<point x="277" y="430"/>
		</contour>
	</outline>
</glyph>
<glyph name="guillemetright" format="2">
	<unicode hex="00BB"/>
	<advance width="529"/>
	<outline>
		<contour>
			<point x="257" y="30" type="line"/>
			<point x="338" y="30" type="line"/>
			<point x="479" y="241" type="line"/>
			<point x="337" y="452" type="line"/>
			<point x="249" y="452" type="line"/>
			<point x="407" y="215" type="line"/>
			<point x="407" y="262" type="line"/>
		</contour>
		<contour>
			<point x="55" y="30" type="line"/>
			<point x="136" y="30" type="line"/>
			<point x="277" y="241" type="line"/>
			<point x="135" y="452" type="line"/>
			<point x="47" y="452" type="line"/>
			<point x="205" y="215" type="line"/>
			<point x="205" y="262" type="line"/>
		</contour>
	</outline>
</glyph>
<glyph name="AE" format="2">
	<unicode hex="00C6"/>
	<advance width="986"/>
	<outline>
		<contour>
			<point x="40" y="0" type="line"/>
			<point x="132" y="0" type="line"/>
			<point x="546" y="694" type="line"/>
			<point x="463" y="694" type="line"/>
		</contour>
		<contour>
			<point x="260" y="202" type="line"/>
			<point x="536" y="202" type="line"/>
			<point x="536" y="282" type="line"/>
			<point x="260" y="282" type="line"/>
		</contour>
		<contour>
			<point x="487" y="0" type="line"/>
			<point x="570" y="0" type="line"/>
			<point x="570" y="694" type="line"/>
			<point x="487" y="694" type="line"/>
		</contour>
		<contour>
			<point x="527" y="0" type="line"/>
			<point x="923" y="0" type="line"/>
			<point x="923" y="72" type="line"/>
			<point x="527" y="72" type="line"/>
		</contour>
		<contour>
			<point x="527" y="323" type="line"/>
			<point x="896" y="323" type="line"/>
			<point x="896" y="395" type="line"/>
			<point x="527" y="395" type="line"/>
		</contour>
		<contour>
			<point x="527" y="622" type="line"/>
			<point x="923" y="622" type="line"/>
			<point x="923" y="694" type="line"/>
			<point x="527" y="694" type="line"/>
		</contour>
	</outline>
	<anchor name="bottom" x="536" y="0"/>
	<anchor name="top" x="536" y="694"/>
</glyph>
<glyph name="dieresistonos" format="2">
	<unicode hex="0385"/>
	<advance width="600"/>
	<outline>
		<contour>
			<point x="392" y="595" type="curve" smooth="yes"/>
			<point x="428" y="595"/>
			<point x="449" y="616"/>
			<point x="449" y="652" type="curve" smooth="yes"/>
			<point x="449" y="688"/>
			<point x="428" y="709"/>
			<point x="392" y="709" type="curve" smooth="yes"/>
			<point x="356" y="709"/>
			<point x="335" y="688"/>
			<point x="335" y="652" type="curve" smooth="yes"/>
			<point x="335" y="616"/>
			<point x="356" y="595"/>
		</contour>
		<contour>
			<point x="122" y="595" type="curve" smooth="yes"/>
			<point x="158" y="595"/>
			<point x="179" y="616"/>
			<point x="179" y="652" type="curve" smooth="yes"/>
			<point x="179" y="688"/>
			<point x="158" y="709"/>
			<point x="122" y="709" type="curve" smooth="yes"/>
			<point x="86" y="709"/>
			<point x="65" y="688"/>
			<point x="65" y="652" type="curve" smooth="yes"/>
			<point x="65" y="616"/>
			<point x="86" y="595"/>
		</contour>
		<component base="tonos.comb" xOffset="128"/>
	</outline>
	<anchor name="_top" x="234" y="482"/>
</glyph>
<glyph name="Delta" format="2">
	<unicode hex="0394"/>
	<advance width="710"/>
	<outline>
		<contour>
			<point x="573" y="72" type="line"/>
			<point x="130" y="72" type="line"/>
			<point x="142" y="48" type="line"/>
			<point x="362" y="636" type="line"/>
			<point x="353" y="636" type="line"/>
			<point x="561" y="48" type="line"/>
		</contour>
		<contour>
			<point x="58" y="0" type="line"/>
			<point x="651" y="0" type="line"/>
			<point x="651" y="53" type="line"/>
			<point x="416" y="694" type="line"/>
			<point x="308" y="694" type="line"/>
			<point x="58" y="53" type="line"/>
		</contour>
	</outline>
	<anchor name="bottom" x="355" y="0"/>
	<anchor name="top" x="355" y="694"/>
</glyph>
<glyph name="Theta" format="2">
	<unicode hex="0398"/>
	<advance width="788"/>
	<outline>
		<contour>
			<point x="230" y="323" type="line"/>
			<point x="558" y="323" type="line"/>
			<point x="558" y="395" type="line"/>
			<point x="230" y="395" type="line"/>
		</contour>
		<component base="O"/>
	</outline>
</glyph>
<glyph name="Lambda" format="2">
	<unicode hex="039B"/>
	<advance width="679"/>
	<outline>
		<contour>
			<point x="43" y="0" type="line"/>
			<point x="130" y="0" type="line"/>
			<point x="347" y="636" type="line"/>
			<point x="338" y="636" type="line"/>
			<point x="542" y="0" type="line"/>
			<point x="635" y="0" type="line"/>
			<point x="401" y="694" type="line"/>
			<point x="293" y="694" type="line"/>
		</contour>
	</outline>
	<anchor name="bottom" x="350" y="0"/>
	<anchor name="top" x="350" y="694"/>
</glyph>
<glyph name="Xi" format="2">
	<unicode hex="039E"/>
	<advance width="592"/>
	<outline>
		<contour>
			<point x="63" y="0" type="line"/>
			<point x="529" y="0" type="line"/>
			<point x="529" y="72" type="line"/>
			<point x="63" y="72" type="line"/>
		</contour>
		<contour>
			<point x="100" y="323" type="line"/>
			<point x="492" y="323" type="line"/>
			<point x="492" y="395" type="line"/>
			<point x="100" y="395" type="line"/>
		</contour>
		<contour>
			<point x="63" y="622" type="line"/>
			<point x="529" y="622" type="line"/>
			<point x="529" y="694" type="line"/>
			<point x="63" y="694" type="line"/>
		</contour>
	</outline>
</glyph>
<glyph name="Sigma" format="2">
	<unicode hex="03A3"/>
	<advance width="572"/>
	<outline>
		<contour>
			<point x="368" y="343" type="line"/>
			<point x="134" y="40" type="line"/>
			<point x="124" y="72" type="line"/>
			<point x="520" y="72" type="line"/>
			<point x="520" y="0" type="line"/>
			<point x="52" y="0" type="line"/>
			<point x="52" y="53" type="line"/>
			<point x="327" y="406" type="line"/>
			<point x="327" y="308" type="line"/>
			<point x="60" y="641" type="line"/>
			<point x="60" y="694" type="line"/>
			<point x="510" y="694" type="line"/>
			<point x="510" y="622" type="line"/>
			<point x="132" y="622" type="line"/>
			<point x="153" y="646" type="line"/>
			<point x="368" y="374" type="line"/>
		</contour>
	</outline>
</glyph>
<glyph name="Psi" format="2">
	<unicode hex="03A8"/>
	<advance width="760"/>
	<outline>
		<contour>
			<point x="352" y="237" type="curve"/>
			<point x="356" y="309" type="line"/>
			<point x="238" y="309"/>
			<point x="157" y="370"/>
			<point x="157" y="490" type="curve" smooth="yes"/>
			<point x="157" y="694" type="line"/>
			<point x="74" y="694" type="line"/>
			<point x="74" y="480" type="line" smooth="yes"/>
			<point x="74" y="327"/>
			<point x="196" y="237"/>
		</contour>
		<contour>
			<point x="407" y="237" type="line"/>
			<point x="569" y="237"/>
			<point x="687" y="328"/>
			<point x="687" y="482" type="curve" smooth="yes"/>
			<point x="687" y="694" type="line"/>
			<point x="606" y="694" type="line"/>
			<point x="606" y="472" type="line" smooth="yes"/>
			<point x="606" y="363"/>
			<point x="526" y="309"/>
			<point x="413" y="309" type="curve"/>
		</contour>
		<component base="Iota" xOffset="234"/>
	</outline>
</glyph>
<glyph name="alpha" format="2">
	<unicode hex="03B1"/>
	<advance width="595"/>
	<outline>
		<contour>
			<point x="441" y="220" type="line"/>
			<point x="425" y="60"/>
			<point x="341" y="-10"/>
			<point x="246" y="-10" type="curve" smooth="yes"/>
			<point x="121" y="-10"/>
			<point x="54" y="91"/>
			<point x="54" y="228" type="curve" smooth="yes"/>
			<point x="54" y="384"/>
			<point x="138" y="492"/>
			<point x="260" y="492" type="curve" smooth="yes"/>
			<point x="348" y="492"/>
			<point x="410" y="430"/>
			<point x="446" y="279" type="curve" smooth="yes"/>
			<point x="475" y="157" type="line" smooth="yes"/>
			<point x="489" y="96"/>
			<point x="497" y="58"/>
			<point x="536" y="58" type="curve" smooth="yes"/>
			<point x="548" y="58"/>
			<point x="561" y="61"/>
			<point x="572" y="66" type="curve"/>
			<point x="588" y="11" type="line"/>
			<point x="569" y="1"/>
			<point x="543" y="-6"/>
			<point x="517" y="-6" type="curve" smooth="yes"/>
			<point x="452" y="-6"/>
			<point x="424" y="46"/>
			<point x="406" y="141" type="curve" smooth="yes"/>
			<point x="385" y="250" type="line" smooth="yes"/>
			<point x="363" y="366"/>
			<point x="321" y="422"/>
			<point x="254" y="422" type="curve" smooth="yes"/>
			<point x="188" y="422"/>
			<point x="134" y="348"/>
			<point x="134" y="235" type="curve" smooth="yes"/>
			<point x="134" y="135"/>
			<point x="171" y="60"/>
			<point x="258" y="60" type="curve" smooth="yes"/>
			<point x="336" y="60"/>
			<point x="387" y="138"/>
			<point x="401" y="236" type="curve"/>
		</contour>
		<contour>
			<point x="462" y="207" type="line"/>
			<point x="415" y="224" type="line"/>
			<point x="452" y="482" type="line"/>
			<point x="527" y="482" type="line"/>
		</contour>
	</outline>
	<anchor name="top" x="268" y="482"/>
</glyph>
<glyph name="gamma" format="2">
	<unicode hex="03B3"/>
	<advance width="511"/>
	<outline>
		<contour>
			<point x="218" y="-10" type="line"/>
			<point x="218" y="-217" type="line"/>
			<point x="303" y="-217" type="line"/>
			<point x="292" y="-10" type="line"/>
		</contour>
		<contour>
			<point x="232" y="7" type="line"/>
			<point x="281" y="7" type="line"/>
			<point x="116" y="482" type="line"/>
			<point x="27" y="482" type="line"/>
			<point x="218" y="-10" type="line"/>
			<point x="292" y="-10" type="line"/>
			<point x="366" y="143" type="line" smooth="yes"/>
			<point x="417" y="249"/>
			<point x="471" y="362"/>
			<point x="473" y="482" type="curve"/>
			<point x="389" y="482" type="line"/>
			<point x="388" y="368"/>
			<point x="343" y="257"/>
			<point x="298" y="156" type="curve" smooth="yes"/>
		</contour>
	</outline>
</glyph>
<glyph name="delta" format="2">
	<unicode hex="03B4"/>
	<advance width="562"/>
	<outline>
		<contour>
			<point x="272" y="492" type="line"/>
			<point x="135" y="429"/>
			<point x="48" y="334"/>
			<point x="48" y="212" type="curve" smooth="yes"/>
			<point x="48" y="79"/>
			<point x="138" y="-10"/>
			<point x="276" y="-10" type="curve" smooth="yes"/>
			<point x="416" y="-10"/>
			<point x="511" y="91"/>
			<point x="511" y="229" type="curve" smooth="yes"/>
			<point x="511" y="368"/>
			<point x="421" y="431"/>
			<point x="304" y="491" type="curve" smooth="yes"/>
			<point x="211" y="539"/>
			<point x="175" y="572"/>
			<point x="175" y="612" type="curve" smooth="yes"/>
			<point x="175" y="656"/>
			<point x="215" y="682"/>
			<point x="274" y="682" type="curve" smooth="yes"/>
			<point x="333" y="682"/>
			<point x="389" y="667"/>
			<point x="454" y="637" type="curve"/>
			<point x="474" y="698" type="line"/>
			<point x="407" y="728"/>
			<point x="348" y="749"/>
			<point x="279" y="749" type="curve" smooth="yes"/>
			<point x="176" y="749"/>
			<point x="99" y="694"/>
			<point x="99" y="608" type="curve" smooth="yes"/>
			<point x="99" y="530"/>
			<point x="163" y="485"/>
			<point x="267" y="431" type="curve" smooth="yes"/>
			<point x="365" y="380"/>
			<point x="431" y="331"/>
			<point x="431" y="221" type="curve" smooth="yes"/>
			<point x="431" y="130"/>
			<point x="373" y="60"/>
			<point x="284" y="60" type="curve" smooth="yes"/>
			<point x="190" y="60"/>
			<point x="128" y="134"/>
			<point x="128" y="218" type="curve" smooth="yes"/>
			<point x="128" y="299"/>
			<point x="172" y="381"/>
			<point x="300" y="445" type="curve"/>
		</contour>
	</outline>
	<anchor name="topright" x="504" y="482"/>
</glyph>
<glyph name="epsilon" format="2">
	<unicode hex="03B5"/>
	<advance width="463"/>
	<outline>
		<contour>
			<point x="253" y="-7" type="curve" smooth="yes"/>
			<point x="313" y="-7"/>
			<point x="380" y="6"/>
			<point x="435" y="30" type="curve"/>
			<point x="415" y="94" type="line"/>
			<point x="370" y="76"/>
			<point x="303" y="64"/>
			<point x="253" y="64" type="curve" smooth="yes"/>
			<point x="177" y="64"/>
			<point x="125" y="92"/>
			<point x="125" y="140" type="curve" smooth="yes"/>
			<point x="125" y="189"/>
			<point x="179" y="214"/>
			<point x="268" y="214" type="curve" smooth="yes"/>
			<point x="340" y="214" type="line"/>
			<point x="340" y="281" type="line"/>
			<point x="275" y="281" type="line" smooth="yes"/>
			<point x="187" y="281"/>
			<point x="139" y="313"/>
			<point x="139" y="356" type="curve" smooth="yes"/>
			<point x="139" y="400"/>
			<point x="186" y="422"/>
			<point x="253" y="422" type="curve" smooth="yes"/>
			<point x="299" y="422"/>
			<point x="343" y="412"/>
			<point x="395" y="396" type="curve"/>
			<point x="413" y="457" type="line"/>
			<point x="358" y="481"/>
			<point x="303" y="492"/>
			<point x="245" y="492" type="curve" smooth="yes"/>
			<point x="137" y="492"/>
			<point x="59" y="436"/>
			<point x="59" y="358" type="curve" smooth="yes"/>
			<point x="59" y="292"/>
			<point x="122" y="242"/>
			<point x="206" y="240" type="curve"/>
			<point x="213" y="248" type="line"/>
			<point x="113" y="249"/>
			<point x="43" y="199"/>
			<point x="43" y="128" type="curve" smooth="yes"/>
			<point x="43" y="41"/>
			<point x="136" y="-7"/>
		</contour>
	</outline>
	<anchor name="bottom" x="230" y="0"/>
	<anchor name="top" x="230" y="482"/>
</glyph>
<glyph name="zeta" format="2">
	<unicode hex="03B6"/>
	<advance width="425"/>
	<outline>
		<contour>
			<point x="125" y="223" type="curve" smooth="yes"/>
			<point x="125" y="137"/>
			<point x="171" y="103"/>
			<point x="267" y="70" type="curve" smooth="yes"/>
			<point x="376" y="32"/>
			<point x="424" y="8"/>
			<point x="424" y="-65" type="curve" smooth="yes"/>
			<point x="424" y="-117"/>
			<point x="390" y="-171"/>
			<point x="336" y="-227" type="curve"/>
			<point x="290" y="-190" type="line"/>
			<point x="324" y="-153"/>
			<point x="354" y="-115"/>
			<point x="354" y="-75" type="curve" smooth="yes"/>
			<point x="354" y="-35"/>
			<point x="329" y="-25"/>
			<point x="241" y="2" type="curve" smooth="yes"/>
			<point x="118" y="40"/>
			<point x="43" y="90"/>
			<point x="43" y="212" type="curve" smooth="yes"/>
			<point x="43" y="360"/>
			<point x="175" y="517"/>
			<point x="331" y="690" type="curve"/>
			<point x="346" y="679" type="line"/>
			<point x="56" y="667" type="line"/>
			<point x="56" y="739" type="line"/>
			<point x="425" y="739" type="line"/>
			<point x="425" y="690" type="line"/>
			<point x="248" y="496"/>
			<point x="125" y="362"/>
		</contour>
	</outline>
</glyph>
<glyph name="eta" format="2">
	<unicode hex="03B7"/>
	<advance width="570"/>
	<outline>
		<contour>
			<point x="414" y="0" type="line"/>
			<point x="414" y="-217" type="line"/>
			<point x="494" y="-217" type="line"/>
			<point x="494" y="0" type="line"/>
		</contour>
		<component base="n"/>
	</outline>
</glyph>
<glyph name="theta" format="2">
	<unicode hex="03B8"/>
	<advance width="630"/>
	<outline>
		<contour>
			<point x="308" y="-10" type="curve" smooth="yes"/>
			<point x="467" y="-10"/>
			<point x="560" y="121"/>
			<point x="560" y="375" type="curve" smooth="yes"/>
			<point x="560" y="619"/>
			<point x="474" y="749"/>
			<point x="320" y="749" type="curve" smooth="yes"/>
			<point x="161" y="749"/>
			<point x="69" y="620"/>
			<point x="69" y="366" type="curve" smooth="yes"/>
			<point x="69" y="122"/>
			<point x="154" y="-10"/>
		</contour>
		<contour>
			<point x="319" y="60" type="curve" smooth="yes"/>
			<point x="209" y="60"/>
			<point x="149" y="169"/>
			<point x="149" y="374" type="curve" smooth="yes"/>
			<point x="149" y="576"/>
			<point x="202" y="679"/>
			<point x="309" y="679" type="curve" smooth="yes"/>
			<point x="419" y="679"/>
			<point x="480" y="570"/>
			<point x="480" y="366" type="curve" smooth="yes"/>
			<point x="480" y="165"/>
			<point x="426" y="60"/>
		</contour>
		<contour>
			<point x="109" y="342" type="line"/>
			<point x="520" y="342" type="line"/>
			<point x="520" y="409" type="line"/>
			<point x="109" y="409" type="line"/>
		</contour>
	</outline>
</glyph>
<glyph name="nu" format="2">
	<unicode hex="03BD"/>
	<advance width="522"/>
	<outline>
		<contour>
			<point x="243" y="17" type="line"/>
			<point x="292" y="17" type="line"/>
			<point x="127" y="482" type="line"/>
			<point x="38" y="482" type="line"/>
			<point x="228" y="0" type="line"/>
			<point x="303" y="0" type="line"/>
			<point x="377" y="143" type="line" smooth="yes"/>
			<point x="431" y="248"/>
			<point x="482" y="361"/>
			<point x="484" y="482" type="curve"/>
			<point x="401" y="482" type="line"/>
			<point x="400" y="367"/>
			<point x="357" y="262"/>
			<point x="315" y="172" type="curve" smooth="yes"/>
		</contour>
	</outline>
	<anchor name="bottom" x="266" y="0"/>
	<anchor name="top" x="266" y="482"/>
</glyph>
<glyph name="xi" format="2">
	<unicode hex="03BE"/>
	<advance width="444"/>
	<outline>
		<contour>
			<point x="313" y="690" type="line"/>
			<point x="165" y="632"/>
			<point x="77" y="572"/>
			<point x="77" y="486" type="curve" smooth="yes"/>
			<point x="77" y="417"/>
			<point x="147" y="371"/>
			<point x="227" y="368" type="curve"/>
			<point x="231" y="375" type="line"/>
			<point x="131" y="373"/>
			<point x="48" y="290"/>
			<point x="48" y="197" type="curve" smooth="yes"/>
			<point x="48" y="88"/>
			<point x="133" y="34"/>
			<point x="251" y="2" type="curve" smooth="yes"/>
			<point x="336" y="-21"/>
			<point x="364" y="-35"/>
			<point x="364" y="-75" type="curve" smooth="yes"/>
			<point x="364" y="-115"/>
			<point x="334" y="-153"/>
			<point x="300" y="-190" type="curve"/>
			<point x="346" y="-227" type="line"/>
			<point x="400" y="-171"/>
			<point x="434" y="-117"/>
			<point x="434" y="-65" type="curve" smooth="yes"/>
			<point x="434" y="7"/>
			<point x="381" y="42"/>
			<point x="277" y="71" type="curve" smooth="yes"/>
			<point x="186" y="96"/>
			<point x="130" y="133"/>
			<point x="130" y="210" type="curve" smooth="yes"/>
			<point x="130" y="285"/>
			<point x="198" y="341"/>
			<point x="287" y="341" type="curve" smooth="yes"/>
			<point x="355" y="341" type="line"/>
			<point x="355" y="408" type="line"/>
			<point x="293" y="408" type="line" smooth="yes"/>
			<point x="205" y="408"/>
			<point x="153" y="444"/>
			<point x="153" y="490" type="curve" smooth="yes"/>
			<point x="153" y="556"/>
			<point x="222" y="598"/>
			<point x="413" y="690" type="curve"/>
			<point x="413" y="739" type="line"/>
			<point x="69" y="739" type="line"/>
			<point x="69" y="667" type="line"/>
			<point x="336" y="681" type="line"/>
		</contour>
	</outline>
</glyph>
<glyph name="rho" format="2">
	<unicode hex="03C1"/>
	<advance width="568"/>
	<outline>
		<contour>
			<point x="75" y="248" type="curve" smooth="yes"/>
			<point x="75" y="-217" type="line"/>
			<point x="160" y="-217" type="line"/>
			<point x="153" y="49" type="line"/>
			<point x="155" y="49" type="line"/>
			<point x="155" y="248" type="line" smooth="yes"/>
			<point x="155" y="371"/>
			<point x="215" y="422"/>
			<point x="292" y="422" type="curve" smooth="yes"/>
			<point x="370" y="422"/>
			<point x="435" y="361"/>
			<point x="435" y="240" type="curve" smooth="yes"/>
			<point x="435" y="132"/>
			<point x="380" y="60"/>
			<point x="293" y="60" type="curve" smooth="yes"/>
			<point x="220" y="60"/>
			<point x="159" y="107"/>
			<point x="142" y="178" type="curve"/>
			<point x="109" y="123" type="line"/>
			<point x="131" y="39"/>
			<point x="204" y="-10"/>
			<point x="290" y="-10" type="curve" smooth="yes"/>
			<point x="424" y="-10"/>
			<point x="515" y="94"/>
			<point x="515" y="250" type="curve" smooth="yes"/>
			<point x="515" y="400"/>
			<point x="436" y="492"/>
			<point x="297" y="492" type="curve" smooth="yes"/>
			<point x="176" y="492"/>
			<point x="75" y="413"/>
		</contour>
	</outline>
</glyph>
<glyph name="sigma" format="2">
	<unicode hex="03C3"/>
	<advance width="612"/>
	<outline>
		<contour>
			<point x="331" y="415" type="curve" smooth="yes"/>
			<point x="433" y="415" type="line"/>
			<point x="588" y="410" type="line"/>
			<point x="588" y="482" type="line"/>
			<point x="326" y="482" type="line" smooth="yes"/>
			<point x="159" y="482"/>
			<point x="53" y="379"/>
			<point x="53" y="229" type="curve" smooth="yes"/>
			<point x="53" y="85"/>
			<point x="140" y="-10"/>
			<point x="280" y="-10" type="curve" smooth="yes"/>
			<point x="422" y="-10"/>
			<point x="514" y="87"/>
			<point x="514" y="223" type="curve" smooth="yes"/>
			<point x="514" y="300"/>
			<point x="469" y="400"/>
			<point x="373" y="476" type="curve"/>
			<point x="335" y="440" type="line"/>
			<point x="400" y="371"/>
			<point x="434" y="283"/>
			<point x="434" y="214" type="curve" smooth="yes"/>
			<point x="434" y="129"/>
			<point x="377" y="60"/>
			<point x="288" y="60" type="curve" smooth="yes"/>
			<point x="195" y="60"/>
			<point x="133" y="132"/>
			<point x="133" y="235" type="curve" smooth="yes"/>
			<point x="133" y="340"/>
			<point x="198" y="415"/>
		</contour>
	</outline>
</glyph>
<glyph name="tau" format="2">
	<unicode hex="03C4"/>
	<advance width="485"/>
	<outline>
		<contour>
			<point x="18" y="415" type="line"/>
			<point x="463" y="415" type="line"/>
			<point x="463" y="482" type="line"/>
			<point x="18" y="482" type="line"/>
		</contour>
		<component base="iota" xOffset="115"/>
	</outline>
	<anchor name="bottom" x="275" y="0"/>
</glyph>
<glyph name="upsilon" format="2">
	<unicode hex="03C5"/>
	<advance width="564"/>
	<outline>
		<contour>
			<point x="271" y="-10" type="curve" smooth="yes"/>
			<point x="416" y="-10"/>
			<point x="494" y="77"/>
			<point x="494" y="226" type="curve" smooth="yes"/>
			<point x="494" y="318"/>
			<point x="478" y="409"/>
			<point x="454" y="482" type="curve"/>
			<point x="371" y="482" type="line"/>
			<point x="396" y="412"/>
			<point x="414" y="307"/>
			<point x="414" y="231" type="curve" smooth="yes"/>
			<point x="414" y="118"/>
			<point x="367" y="60"/>
			<point x="275" y="60" type="curve" smooth="yes"/>
			<point x="199" y="60"/>
			<point x="156" y="103"/>
			<point x="156" y="184" type="curve" smooth="yes"/>
			<point x="156" y="482" type="line"/>
			<point x="76" y="482" type="line"/>
			<point x="76" y="167" type="line" smooth="yes"/>
			<point x="76" y="58"/>
			<point x="144" y="-10"/>
		</contour>
	</outline>
	<anchor name="top" x="259" y="482"/>
</glyph>
<glyph name="phi" format="2">
	<unicode hex="03C6"/>
	<advance width="689"/>
	<outline>
		<contour>
			<point x="306" y="-2" type="curve"/>
			<point x="311" y="65" type="line"/>
			<point x="194" y="65"/>
			<point x="143" y="151"/>
			<point x="143" y="250" type="curve" smooth="yes"/>
			<point x="143" y="316"/>
			<point x="162" y="404"/>
			<point x="200" y="482" type="curve"/>
			<point x="123" y="482" type="line"/>
			<point x="88" y="409"/>
			<point x="63" y="321"/>
			<point x="63" y="240" type="curve" smooth="yes"/>
			<point x="63" y="92"/>
			<point x="163" y="-2"/>
		</contour>
		<contour>
			<point x="376" y="66" type="curve"/>
			<point x="371" y="-2" type="line"/>
			<point x="534" y="-2"/>
			<point x="635" y="100"/>
			<point x="635" y="266" type="curve" smooth="yes"/>
			<point x="635" y="394"/>
			<point x="586" y="492"/>
			<point x="471" y="492" type="curve" smooth="yes"/>
			<point x="360" y="492"/>
			<point x="300" y="412"/>
			<point x="300" y="283" type="curve" smooth="yes"/>
			<point x="300" y="-217" type="line"/>
			<point x="380" y="-217" type="line"/>
			<point x="380" y="279" type="line" smooth="yes"/>
			<point x="380" y="373"/>
			<point x="406" y="422"/>
			<point x="464" y="422" type="curve" smooth="yes"/>
			<point x="533" y="422"/>
			<point x="555" y="350"/>
			<point x="555" y="260" type="curve" smooth="yes"/>
			<point x="555" y="141"/>
			<point x="502" y="66"/>
		</contour>
	</outline>
</glyph>
<glyph name="chi" format="2">
	<unicode hex="03C7"/>
	<advance width="486"/>
	<outline>
		<contour>
			<point x="19" y="482" type="line"/>
			<point x="224" y="89" type="line"/>
			<point x="379" y="-217" type="line"/>
			<point x="470" y="-217" type="line"/>
			<point x="267" y="173" type="line"/>
			<point x="110" y="482" type="line"/>
		</contour>
		<contour>
			<point x="276" y="113" type="line"/>
			<point x="461" y="482" type="line"/>
			<point x="373" y="482" type="line"/>
			<point x="238" y="189" type="line"/>
		</contour>
		<contour>
			<point x="212" y="165" type="line"/>
			<point x="17" y="-217" type="line"/>
			<point x="104" y="-217" type="line"/>
			<point x="251" y="89" type="line"/>
		</contour>
	</outline>
</glyph>
<glyph name="omega" format="2">
	<unicode hex="03C9"/>
	<advance width="743"/>
	<outline>
		<contour>
			<point x="680" y="205" type="curve" smooth="yes"/>
			<point x="680" y="93"/>
			<point x="634" y="-10"/>
			<point x="508" y="-10" type="curve" smooth="yes"/>
			<point x="418" y="-10"/>
			<point x="362" y="61"/>
			<point x="362" y="189" type="curve"/>
			<point x="377" y="194" type="line"/>
			<point x="377" y="64"/>
			<point x="310" y="-10"/>
			<point x="225" y="-10" type="curve" smooth="yes"/>
			<point x="104" y="-10"/>
			<point x="63" y="89"/>
			<point x="63" y="201" type="curve" smooth="yes"/>
			<point x="63" y="298"/>
			<point x="82" y="395"/>
			<point x="110" y="482" type="curve"/>
			<point x="189" y="482" type="line"/>
			<point x="160" y="398"/>
			<point x="143" y="281"/>
			<point x="143" y="198" type="curve" smooth="yes"/>
			<point x="143" y="128"/>
			<point x="166" y="60"/>
			<point x="232" y="60" type="curve" smooth="yes"/>
			<point x="295" y="60"/>
			<point x="330" y="119"/>
			<point x="330" y="216" type="curve" smooth="yes"/>
			<point x="330" y="352" type="line"/>
			<point x="410" y="352" type="line"/>
			<point x="410" y="216" type="line" smooth="yes"/>
			<point x="410" y="119"/>
			<point x="445" y="60"/>
			<point x="503" y="60" type="curve" smooth="yes"/>
			<point x="581" y="60"/>
			<point x="600" y="132"/>
			<point x="600" y="202" type="curve" smooth="yes"/>
			<point x="600" y="285"/>
			<point x="577" y="398"/>
			<point x="548" y="482" type="curve"/>
			<point x="627" y="482" type="line"/>
			<point x="655" y="395"/>
			<point x="680" y="302"/>
		</contour>
	</outline>
	<anchor name="top" x="370" y="482"/>
</glyph>
<glyph name="E-cy" format="2">
	<unicode hex="0404"/>
	<advance width="683"/>
	<outline>
		<contour>
			<point x="87" y="320" type="line"/>
			<point x="551" y="320" type="line"/>
			<point x="551" y="388" type="line"/>
			<point x="87" y="388" type="line"/>
		</contour>
		<contour>
			<point x="418" y="-10" type="curve" smooth="yes"/>
			<point x="487" y="-10"/>
			<point x="559" y="5"/>
			<point x="627" y="34" type="curve"/>
			<point x="608" y="95" type="line"/>
			<point x="556" y="75"/>
			<point x="490" y="63"/>
			<point x="437" y="63" type="curve" smooth="yes"/>
			<point x="266" y="63"/>
			<point x="151" y="181"/>
			<point x="151" y="358" type="curve" smooth="yes"/>
			<point x="151" y="527"/>
			<point x="257" y="630"/>
			<point x="429" y="630" type="curve" smooth="yes"/>
			<point x="486" y="630"/>
			<point x="552" y="618"/>
			<point x="607" y="598" type="curve"/>
			<point x="631" y="660" type="line"/>
			<point x="578" y="687"/>
			<point x="504" y="703"/>
			<point x="434" y="703" type="curve" smooth="yes"/>
			<point x="214" y="703"/>
			<point x="66" y="557"/>
			<point x="66" y="339" type="curve" smooth="yes"/>
			<point x="66" y="130"/>
			<point x="208" y="-10"/>
		</contour>
	</outline>
</glyph>
<glyph name="Ge-cy" format="2">
	<unicode hex="0413"/>
	<advance width="554"/>
	<outline>
		<contour>
			<point x="106" y="0" type="line"/>
			<point x="189" y="0" type="line"/>
			<point x="189" y="620" type="line"/>
			<point x="527" y="620" type="line"/>
			<point x="527" y="694" type="line"/>
			<point x="106" y="694" type="line"/>
		</contour>
	</outline>
	<anchor name="bottomright" x="198" y="0"/>
	<anchor name="top" x="288" y="694"/>
</glyph>
<glyph name="Ka-cy" format="2">
	<unicode hex="041A"/>
	<advance width="634"/>
	<outline>
		<contour>
			<point x="506" y="0" type="line"/>
			<point x="601" y="0" type="line"/>
			<point x="343" y="380" type="line"/>
			<point x="348" y="358" type="line"/>
			<point x="588" y="694" type="line"/>
			<point x="500" y="694" type="line"/>
			<point x="259" y="361" type="line"/>
		</contour>
		<contour>
			<point x="106" y="0" type="line"/>
			<point x="188" y="0" type="line"/>
			<point x="188" y="694" type="line"/>
			<point x="106" y="694" type="line"/>
		</contour>
		<contour>
			<point x="139" y="323" type="line"/>
			<point x="309" y="323" type="line"/>
			<point x="309" y="395" type="line"/>
			<point x="139" y="395" type="line"/>
		</contour>
	</outline>
	<anchor name="bottomright" x="565" y="0"/>
	<anchor name="top" x="323" y="694"/>
</glyph>
<glyph name="Sha-cy" format="2">
	<unicode hex="0428"/>
	<advance width="1026"/>
	<outline>
		<contour>
			<point x="106" y="0" type="line"/>
			<point x="920" y="0" type="line"/>
			<point x="920" y="694" type="line"/>
			<point x="838" y="694" type="line"/>
			<point x="838" y="71" type="line"/>
			<point x="188" y="71" type="line"/>
			<point x="188" y="694" type="line"/>
			<point x="106" y="694" type="line"/>
		</contour>
		<contour>
			<point x="472" y="30" type="line"/>
			<point x="554" y="30" type="line"/>
			<point x="554" y="694" type="line"/>
			<point x="472" y="694" type="line"/>
		</contour>
	</outline>
</glyph>
<glyph name="Iu-cy" format="2">
	<unicode hex="042E"/>
	<advance width="1030"/>
	<outline>
		<contour>
			<point x="633" y="-7" type="curve" smooth="yes"/>
			<point x="828" y="-7"/>
			<point x="963" y="140"/>
			<point x="963" y="353" type="curve" smooth="yes"/>
			<point x="963" y="563"/>
			<point x="834" y="703"/>
			<point x="642" y="703" type="curve" smooth="yes"/>
			<point x="450" y="703"/>
			<point x="326" y="562"/>
			<point x="326" y="344" type="curve" smooth="yes"/>
			<point x="326" y="130"/>
			<point x="446" y="-7"/>
		</contour>
		<contour>
			<point x="106" y="0" type="line"/>
			<point x="189" y="0" type="line"/>
			<point x="189" y="694" type="line"/>
			<point x="106" y="694" type="line"/>
		</contour>
		<contour>
			<point x="142" y="323" type="line"/>
			<point x="352" y="323" type="line"/>
			<point x="352" y="395" type="line"/>
			<point x="142" y="395" type="line"/>
		</contour>
		<contour>
			<point x="639" y="65" type="curve" smooth="yes"/>
			<point x="497" y="65"/>
			<point x="408" y="176"/>
			<point x="408" y="353" type="curve" smooth="yes"/>
			<point x="408" y="527"/>
			<point x="492" y="630"/>
			<point x="633" y="630" type="curve" smooth="yes"/>
			<point x="778" y="630"/>
			<point x="878" y="513"/>
			<point x="878" y="344" type="curve" smooth="yes"/>
			<point x="878" y="177"/>
			<point x="782" y="65"/>
		</contour>
	</outline>
	<anchor name="top" x="515" y="694"/>
</glyph>
<glyph name="ii-cy" format="2">
	<unicode hex="0438"/>
	<advance width="583"/>
	<outline>
		<contour>
			<point x="85" y="0" type="line"/>
			<point x="157" y="0" type="line"/>
			<point x="432" y="390" type="line"/>
			<point x="423" y="393" type="line"/>
			<point x="423" y="0" type="line"/>
			<point x="498" y="0" type="line"/>
			<point x="498" y="482" type="line"/>
			<point x="424" y="482" type="line"/>
			<point x="151" y="89" type="line"/>
			<point x="161" y="86" type="line"/>
			<point x="161" y="482" type="line"/>
			<point x="85" y="482" type="line"/>
		</contour>
	</outline>
	<anchor name="bottomright" x="555" y="0"/>
	<anchor name="top" x="292" y="482"/>
</glyph>
<glyph name="el-cy" format="2">
	<unicode hex="043B"/>
	<advance width="564"/>
	<outline>
		<contour>
			<point x="26" y="62" type="curve"/>
			<point x="37" y="-11" type="line"/>
			<point x="149" y="10"/>
			<point x="214" y="105"/>
			<point x="214" y="242" type="curve" smooth="yes"/>
			<point x="214" y="415" type="line"/>
			<point x="399" y="415" type="line"/>
			<point x="399" y="0" type="line"/>
			<point x="479" y="0" type="line"/>
			<point x="479" y="482" type="line"/>
			<point x="139" y="482" type="line"/>
			<point x="139" y="241" type="line" smooth="yes"/>
			<point x="139" y="144"/>
			<point x="97" y="77"/>
		</contour>
	</outline>
</glyph>
<glyph name="Gheupturn-cy" format="2">
	<unicode hex="0490"/>
	<advance width="553"/>
	<outline>
		<contour>
			<point x="106" y="0" type="line"/>
			<point x="189" y="0" type="line"/>
			<point x="189" y="622" type="line"/>
			<point x="527" y="622" type="line"/>
			<point x="527" y="854" type="line"/>
			<point x="461" y="854" type="line"/>
			<point x="461" y="694" type="line"/>
			<point x="106" y="694" type="line"/>
		</contour>
	</outline>
</glyph>
<glyph name="Ghestroke-cy" format="2">
	<unicode hex="0492"/>
	<advance width="563"/>
	<outline>
		<contour>
			<point x="126" y="0" type="line"/>
			<point x="209" y="0" type="line"/>
			<point x="209" y="622" type="line"/>
			<point x="537" y="622" type="line"/>
			<point x="537" y="694" type="line"/>
			<point x="126" y="694" type="line"/>
		</contour>
		<contour>
			<point x="36" y="295" type="line"/>
			<point x="376" y="295" type="line"/>
			<point x="376" y="360" type="line"/>
			<point x="36" y="360" type="line"/>
		</contour>
	</outline>
</glyph>
<glyph name="ghestroke-cy" format="2">
	<unicode hex="0493"/>
	<advance width="468"/>
	<outline>
		<contour>
			<point x="112" y="0" type="line"/>
			<point x="191" y="0" type="line"/>
			<point x="191" y="414" type="line"/>
			<point x="449" y="414" type="line"/>
			<point x="449" y="482" type="line"/>
			<point x="112" y="482" type="line"/>
		</contour>
		<contour>
			<point x="26" y="219" type="line"/>
			<point x="366" y="219" type="line"/>
			<point x="366" y="286" type="line"/>
			<point x="26" y="286" type="line"/>
		</contour>
	</outline>
</glyph>
<glyph name="Ghemiddlehook-cy" format="2">
	<unicode hex="0494"/>
	<advance width="678"/>
	<outline>
		<contour>
			<point x="415" y="-234" type="line"/>
			<point x="541" y="-204"/>
			<point x="618" y="-84"/>
			<point x="618" y="80" type="curve" smooth="yes"/>
			<point x="618" y="284"/>
			<point x="530" y="402"/>
			<point x="378" y="402" type="curve" smooth="yes"/>
			<point x="289" y="402"/>
			<point x="190" y="357"/>
			<point x="139" y="293" type="curve"/>
			<point x="158" y="242" type="line"/>
			<point x="199" y="295"/>
			<point x="279" y="332"/>
			<point x="352" y="332" type="curve" smooth="yes"/>
			<point x="468" y="332"/>
			<point x="533" y="239"/>
			<point x="533" y="75" type="curve" smooth="yes"/>
			<point x="533" y="-76"/>
			<point x="487" y="-165"/>
			<point x="398" y="-186" type="curve"/>
		</contour>
		<contour>
			<point x="106" y="0" type="line"/>
			<point x="189" y="0" type="line"/>
			<point x="189" y="622" type="line"/>
			<point x="517" y="622" type="line"/>
			<point x="517" y="694" type="line"/>
			<point x="106" y="694" type="line"/>
		</contour>
	</outline>
</glyph>
<glyph name="kaverticalstroke-cy" format="2">
	<unicode hex="049D"/>
	<advance width="526"/>
	<outline>
		<contour>
			<point x="412" y="0" type="line"/>
			<point x="506" y="0" type="line"/>
			<point x="345" y="267" type="line"/>
			<point x="348" y="249" type="line"/>
			<point x="497" y="482" type="line"/>
			<point x="408" y="482" type="line"/>
			<point x="262" y="251" type="line"/>
		</contour>
		<contour>
			<point x="85" y="0" type="line"/>
			<point x="166" y="0" type="line"/>
			<point x="166" y="482" type="line"/>
			<point x="85" y="482" type="line"/>
		</contour>
		<contour>
			<point x="120" y="219" type="line"/>
			<point x="302" y="219" type="line"/>
			<point x="302" y="284" type="line"/>
			<point x="120" y="284" type="line"/>
		</contour>
		<contour>
			<point x="207" y="85" type="line"/>
			<point x="270" y="85" type="line"/>
			<point x="270" y="410" type="line"/>
			<point x="207" y="410" type="line"/>
		</contour>
	</outline>
</glyph>
<glyph name="Enghe-cy" format="2">
	<unicode hex="04A4"/>
	<advance width="938"/>
	<outline>
		<contour>
			<point x="560" y="0" type="line"/>
			<point x="643" y="0" type="line"/>
			<point x="643" y="694" type="line"/>
			<point x="560" y="694" type="line"/>
		</contour>
		<contour>
			<point x="106" y="0" type="line"/>
			<point x="189" y="0" type="line"/>
			<point x="189" y="694" type="line"/>
			<point x="106" y="694" type="line"/>
		</contour>
		<contour>
			<point x="138" y="323" type="line"/>
			<point x="608" y="323" type="line"/>
			<point x="608" y="395" type="line"/>
			<point x="138" y="395" type="line"/>
		</contour>
		<contour>
			<point x="560" y="622" type="line"/>
			<point x="904" y="622" type="line"/>
			<point x="904" y="694" type="line"/>
			<point x="560" y="694" type="line"/>
		</contour>
	</outline>
</glyph>
<glyph name="Cheverticalstroke-cy" format="2">
	<unicode hex="04B8"/>
	<advance width="681"/>
	<outline>
		<contour>
			<point x="294" y="252" type="curve" smooth="yes"/>
			<point x="381" y="252"/>
			<point x="473" y="282"/>
			<point x="535" y="331" type="curve"/>
			<point x="516" y="382" type="line"/>
			<point x="464" y="345"/>
			<point x="390" y="322"/>
			<point x="315" y="322" type="curve" smooth="yes"/>
			<point x="212" y="322"/>
			<point x="151" y="366"/>
			<point x="151" y="444" type="curve" smooth="yes"/>
			<point x="151" y="694" type="line"/>
			<point x="71" y="694" type="line"/>
			<point x="71" y="428" type="line" smooth="yes"/>
			<point x="71" y="321"/>
			<point x="159" y="252"/>
		</contour>
		<contour>
			<point x="290" y="110" type="line"/>
			<point x="359" y="110" type="line"/>
			<point x="359" y="480" type="line"/>
			<point x="290" y="480" type="line"/>
		</contour>
		<contour>
			<point x="495" y="0" type="line"/>
			<point x="575" y="0" type="line"/>
			<point x="575" y="694" type="line"/>
			<point x="495" y="694" type="line"/>
		</contour>
	</outline>
</glyph>
<glyph name="endash" format="2">
	<unicode hex="2013"/>
	<advance width="670"/>
	<outline>
		<contour>
			<point x="85" y="220" type="line"/>
			<point x="585" y="220" type="line"/>
			<point x="585" y="287" type="line"/>
			<point x="85" y="287" type="line"/>
		</contour>
	</outline>
</glyph>
<glyph name="peso" format="2">
	<unicode hex="20B1"/>
	<advance width="808"/>
	<outline>
		<contour>
			<point x="599" y="564" type="line"/>
			<point x="599" y="504" type="line"/>
			<point x="720" y="504" type="line"/>
			<point x="720" y="564" type="line"/>
		</contour>
		<contour>
			<point x="219" y="504" type="line"/>
			<point x="219" y="564" type="line"/>
			<point x="88" y="564" type="line"/>
			<point x="88" y="504" type="line"/>
		</contour>
		<contour>
			<point x="599" y="424" type="line"/>
			<point x="599" y="364" type="line"/>
			<point x="720" y="364" type="line"/>
			<point x="720" y="424" type="line"/>
		</contour>
		<contour>
			<point x="219" y="364" type="line"/>
			<point x="219" y="424" type="line"/>
			<point x="88" y="424" type="line"/>
			<point x="88" y="364" type="line"/>
		</contour>
		<contour>
			<point x="178" y="0" type="line"/>
			<point x="261" y="0" type="line"/>
			<point x="261" y="694" type="line"/>
			<point x="178" y="694" type="line"/>
		</contour>
		<contour>
			<point x="231" y="242" type="line"/>
			<point x="379" y="242" type="line" smooth="yes"/>
			<point x="534" y="242"/>
			<point x="638" y="334"/>
			<point x="638" y="473" type="curve" smooth="yes"/>
			<point x="638" y="606"/>
			<point x="540" y="694"/>
			<point x="394" y="694" type="curve" smooth="yes"/>
			<point x="231" y="694" type="line"/>
			<point x="231" y="622" type="line"/>
			<point x="384" y="622" type="line" smooth="yes"/>
			<point x="485" y="622"/>
			<point x="553" y="556"/>
			<point x="553" y="458" type="curve" smooth="yes"/>
			<point x="553" y="364"/>
			<point x="497" y="314"/>
			<point x="394" y="314" type="curve" smooth="yes"/>
			<point x="231" y="314" type="line"/>
		</contour>
	</outline>
	<anchor name="bottom" x="379" y="0"/>
	<anchor name="top" x="379" y="694"/>
</glyph>
<glyph name="notequal" format="2">
	<unicode hex="2260"/>
	<advance width="651"/>
	<outline>
		<contour>
			<point x="93" y="406" type="line"/>
			<point x="558" y="406" type="line"/>
			<point x="558" y="475" type="line"/>
			<point x="93" y="475" type="line"/>
		</contour>
		<contour>
			<point x="219" y="64" type="line"/>
			<point x="492" y="547" type="line"/>
			<point x="438" y="578" type="line"/>
			<point x="169" y="92" type="line"/>
		</contour>
		<contour>
			<point x="93" y="166" type="line"/>
			<point x="558" y="166" type="line"/>
			<point x="558" y="235" type="line"/>
			<point x="93" y="235" type="line"/>
		</contour>
	</outline>
</glyph>
<glyph name="leftanglebracket-math" format="2">
	<unicode hex="27E8"/>
	<advance width="322"/>
	<outline>
		<contour>
			<point x="188" y="-10" type="line"/>
			<point x="273" y="-10" type="line"/>
			<point x="117" y="398" type="line"/>
			<point x="117" y="351" type="line"/>
			<point x="268" y="739" type="line"/>
			<point x="192" y="739" type="line"/>
			<point x="48" y="372" type="line"/>
		</contour>
	</outline>
</glyph>
<glyph name="descenderreversed-cy" format="2">
	<advance width="267"/>
	<outline>
		<contour>
			<point x="50" y="-120" type="line"/>
			<point x="125" y="-120" type="line"/>
			<point x="125" y="0" type="line"/>
			<point x="182" y="0" type="line"/>
			<point x="182" y="72" type="line"/>
			<point x="50" y="72" type="line"/>
		</contour>
	</outline>
	<anchor name="_bottomright" x="207" y="0"/>
</glyph>
<glyph name="macroncomb.narrow.case" format="2">
	<advance width="427"/>
	<outline>
		<contour>
			<point x="88.4" y="782" type="line"/>
			<point x="338.8" y="782" type="line"/>
			<point x="338.8" y="847" type="line"/>
			<point x="88.4" y="847" type="line"/>
		</contour>
	</outline>
	<anchor name="_top" x="214" y="694"/>
	<anchor name="top" x="214" y="847"/>
</glyph>
<glyph name="one.dnom" format="2">
	<advance width="346"/>
	<outline>
		<contour>
			<point x="154" y="53" type="line"/>
			<point x="229" y="53" type="line"/>
			<point x="229" y="472" type="line"/>
			<point x="184" y="472" type="line"/>
			<point x="37" y="385" type="line"/>
			<point x="65" y="333" type="line"/>
			<point x="179" y="395" type="line"/>
			<point x="154" y="418" type="line"/>
		</contour>
		<contour>
			<point x="53" y="0" type="line"/>
			<point x="319" y="0" type="line"/>
			<point x="319" y="64" type="line"/>
			<point x="53" y="64" type="line"/>
		</contour>
	</outline>
	<note>
		one
	</note>
</glyph>
<glyph name="one.osf" format="2">
	<advance width="445"/>
	<outline>
		<contour>
			<point x="204" y="53" type="line"/>
			<point x="282" y="53" type="line"/>
			<point x="282" y="594" type="line"/>
			<point x="235" y="594" type="line"/>
			<point x="48" y="487" type="line"/>
			<point x="77" y="434" type="line"/>
			<point x="232" y="514" type="line"/>
			<point x="204" y="537" type="line"/>
		</contour>
		<contour>
			<point x="65" y="0" type="line"/>
			<point x="403" y="0" type="line"/>
			<point x="403" y="67" type="line"/>
			<point x="65" y="67" type="line"/>
		</contour>
	</outline>
</glyph>
<glyph name="seven.lf" format="2">
	<advance width="547"/>
	<outline>
		<contour>
			<point x="130" y="0" type="line"/>
			<point x="217" y="0" type="line"/>
			<point x="505" y="654" type="line"/>
			<point x="505" y="694" type="line"/>
			<point x="40" y="694" type="line"/>
			<point x="40" y="622" type="line"/>
			<point x="440" y="622" type="line"/>
			<point x="419" y="652" type="line"/>
		</contour>
	</outline>
</glyph>
<glyph name="six.osf" format="2">
	<advance width="601"/>
	<outline>
		<contour>
			<point x="316" y="-10" type="curve" smooth="yes"/>
			<point x="447" y="-10"/>
			<point x="540" y="80"/>
			<point x="540" y="213" type="curve" smooth="yes"/>
			<point x="540" y="338"/>
			<point x="457" y="424"/>
			<point x="338" y="424" type="curve" smooth="yes"/>
			<point x="235" y="424"/>
			<point x="156" y="361"/>
			<point x="111" y="256" type="curve"/>
			<point x="132" y="214" type="line"/>
			<point x="166" y="303"/>
			<point x="231" y="354"/>
			<point x="311" y="354" type="curve" smooth="yes"/>
			<point x="398" y="354"/>
			<point x="458" y="292"/>
			<point x="458" y="199" type="curve" smooth="yes"/>
			<point x="458" y="114"/>
			<point x="407" y="60"/>
			<point x="326" y="60" type="curve" smooth="yes"/>
			<point x="215" y="60"/>
			<point x="155" y="159"/>
			<point x="155" y="334" type="curve" smooth="yes"/>
			<point x="155" y="535"/>
			<point x="232" y="634"/>
			<point x="363" y="634" type="curve" smooth="yes"/>
			<point x="409" y="634"/>
			<point x="468" y="622"/>
			<point x="507" y="598" type="curve"/>
			<point x="530" y="660" type="line"/>
			<point x="494" y="687"/>
			<point x="436" y="704"/>
			<point x="371" y="704" type="curve" smooth="yes"/>
			<point x="184" y="704"/>
			<point x="68" y="567"/>
			<point x="68" y="328" type="curve" smooth="yes"/>
			<point x="68" y="110"/>
			<point x="165" y="-10"/>
		</contour>
	</outline>
</glyph>
<glyph name="zero.dnom" format="2">
	<advance width="492"/>
	<outline>
		<contour>
			<point x="244" y="-7" type="curve" smooth="yes"/>
			<point x="362" y="-7"/>
			<point x="437" y="88"/>
			<point x="437" y="238" type="curve" smooth="yes"/>
			<point x="437" y="384"/>
			<point x="364" y="478"/>
			<point x="248" y="478" type="curve" smooth="yes"/>
			<point x="132" y="478"/>
			<point x="55" y="384"/>
			<point x="55" y="233" type="curve" smooth="yes"/>
			<point x="55" y="87"/>
			<point x="128" y="-7"/>
		</contour>
		<contour>
			<point x="248" y="57" type="curve" smooth="yes"/>
			<point x="177" y="57"/>
			<point x="132" y="127"/>
			<point x="132" y="238" type="curve" smooth="yes"/>
			<point x="132" y="346"/>
			<point x="176" y="414"/>
			<point x="245" y="414" type="curve" smooth="yes"/>
			<point x="316" y="414"/>
			<point x="360" y="343"/>
			<point x="360" y="233" type="curve" smooth="yes"/>
			<point x="360" y="126"/>
			<point x="317" y="57"/>
		</contour>
	</outline>
	<anchor name="slash" x="248" y="237"/>
	<note>
		zero
	</note>
</glyph>
